<svg xmlns="http://www.w3.org/2000/svg" id="Layer_1" data-name="Layer 1" viewBox="0 0 1911.53 410.44"><defs><style>.cls-1{fill:#fff;}.cls-2{fill:#f281b3;}</style></defs><title>Icons_</title><path class="cls-1" d="M1843,86.79c10.64,0,15.32,7.66,15.32,20,0,33.62-18.29,49.78-53.61,50.21,4.69-42.12,18.3-70.2,38.29-70.2m68.5,31.06c0-36.59-26.38-53.19-65.52-53.19-66.37,0-111.89,42.55-111.89,112.33,0,51,34.46,81.68,84.67,81.68,38.28,0,69.77-11.06,87.64-50.63l-10.21-8.5c-15.74,14.89-30.21,22.54-51.06,22.54-28.5,0-40.84-19.14-40.84-45.09,64.66,0,107.21-12.34,107.21-59.14m-248.89-8.08c2.13-24.26-7.23-45.11-40.84-45.11-25.1,0-48.93,12.34-57.44,36.59l9.36,8.94c8.08-8.94,14.89-11.49,25.53-8.51l-26.38,152.74h69.35L1658,161.24c10.63-24.25,24.67-43,37.43-53.18,0,15.74,10.22,28.93,30.2,28.93,19.58,0,34-14.47,34-35.31,0-23-15.74-37-35.73-37-27.23,0-44.67,17.87-60.42,58.29h-1.7Zm-156.13-23c10.63,0,15.31,7.66,15.31,20,0,33.62-18.29,49.78-53.61,50.21,4.68-42.12,18.3-70.2,38.3-70.2M1575,117.85c0-36.59-26.37-53.19-65.52-53.19-66.37,0-111.89,42.55-111.89,112.33,0,51,34.46,81.68,84.66,81.68,38.29,0,69.78-11.06,87.65-50.63l-10.22-8.5c-15.74,14.89-30.2,22.54-51,22.54-28.51,0-40.84-19.14-40.84-45.09,64.67,0,107.21-12.34,107.21-59.14M1321,4.25l-5.11,13.61,23,9.79-14,89.35h-85.51l14-89.35,28.5-9.79-1.27-13.61h-115.3l-5.11,13.61,23,9.79L1150.83,231l-25.95,9.79.85,13.61H1241l5.52-13.61L1221,231l14.47-90.62H1321L1306.55,231l-26,9.79.85,13.61h115.3l5.53-13.61L1376.74,231l32.34-203.37,28.51-9.79-1.28-13.61ZM965.76,91.9h29.36l-17.45,84.23a162.46,162.46,0,0,0-3.83,37c0,30.21,19.15,45.52,54.46,45.52,32.33,0,54.46-9.78,71.91-30.2L1093,216.13a60.28,60.28,0,0,1-31.06,8.51c-13.61,0-20.84-6.39-20.84-21.7,0-7.23,1.27-15.32,3-23.4l16.17-87.64h49.35l6-23h-51.91l8.94-49.78h-24.68L968.31,77Zm0-23L896,72.75,875.15,201.24c-10.64,10.63-18.73,16.16-28.94,16.16-10.63,0-14.46-7.23-11.91-19.14l13.61-80.84c5.53-34.89-9.78-52.75-44.25-52.75-29.35,0-49.78,16.16-56.58,36.16l8.94,8.94c7.23-8.09,16.16-11.49,25.53-8.09L765,200.38c-7.23,43.83,20.85,58.29,45.53,58.29,19.14,0,43.82-7.66,62.54-37h1.7c-.43,26.8,15.31,37,39.56,37,31.07,0,51.48-11.91,62.55-36.16L967,213.15c-8.08,8.93-21.27,9.79-25.95,5.1ZM623.71,258.67c85.09,0,142.1-63,142.1-152.73C765.81,37,722.84,0,656.47,0,571.8,0,514.79,63.39,514.79,153.16c0,68.92,43,105.51,108.92,105.51M656.47,22.12c26.8,0,36.16,23.4,36.16,59.14,0,68.92-21.7,155.29-68.93,155.29-26.37,0-36.15-23-36.15-58.71,0-68.93,21.69-155.72,68.92-155.72M398.65,86.79c10.64,0,15.31,7.66,15.31,20,0,33.62-18.29,49.78-53.6,50.21,4.68-42.12,18.29-70.2,38.29-70.2m68.5,31.06c0-36.59-26.38-53.19-65.52-53.19-66.37,0-111.9,42.55-111.9,112.33,0,51,34.47,81.68,84.67,81.68,38.29,0,69.77-11.06,87.64-50.63l-10.21-8.5c-15.74,14.89-30.2,22.54-51.05,22.54-28.51,0-40.84-19.14-40.84-45.09,64.66,0,107.21-12.34,107.21-59.14M174.44,254.42H234L335.68,29.35,357.38,17V4.25H282.5L277,19.14l28.08,9.36L258.26,136.14c-14.48,32.34-23.41,66-23.41,66h-1.7a307.88,307.88,0,0,0,1.28-67.22L222.94,4.25H175.29L112.75,137.42c-14,29.78-22.55,64.67-22.55,64.67H88.5s6-32.33,5.1-64.67L89.77,26l24.68-5.53,1.27-16.17H6L0,17,17.45,29.35,28.93,254.42H90.2l52.76-120a498,498,0,0,0,20.41-56.59h1.71s-3.83,28.09-1.28,57Z"></path><path class="cls-2" d="M1835.61,404.54c-1.06.35-2.55,1.08-3.31-.12s.65-1.92,1.36-2.67a68.63,68.63,0,0,1,16.54-12.57c-2.92,7-7.06,12.81-14.59,15.36m21.31-39.33c-5.44,3-10.88,5.9-16.81,7.8a2.16,2.16,0,0,1-2.09-.17c1.87-2.33,4.31-3.86,6.54-5.62,1.61-1.28,3.34-2.42,5-3.65a10.07,10.07,0,0,1,6.43-2.12,2.33,2.33,0,0,1,2.28,1.53c.46,1.21-.47,1.75-1.33,2.23m41.71-4.41c-9.4,2.93-18.51,6.6-27.56,10.44-2.2.92-4.41,1.82-7.29,3,2.77-3.88,4.31-7.59,7.31-10.37a2.92,2.92,0,0,0,.39-4.25c-1.1-1.35-2.84-1.52-4.52-.4-1,.67-2,1.41-3,2a1.64,1.64,0,0,1-2.45-.43c-3.69-4.16-7.3-4.57-12.34-2.1-5.4,2.64-10,6.34-14.69,10a30.05,30.05,0,0,0-3,3.15,3.77,3.77,0,0,0-.63,4.09c.92,2.66,3.42,3.92,6.86,3.33a34.84,34.84,0,0,0,9.32-3l11.82-5.63c-1.64,5.22-3.49,9-8,11.57A113.3,113.3,0,0,0,1831,397a14,14,0,0,0-3.69,4.89c-2.15,4.95.17,8.56,5.51,8.57,7.12,0,12.56-3.22,16.64-8.84a86.81,86.81,0,0,0,7.52-12.86c1.32-2.72,2.69-5.67,5.61-7.24a196.43,196.43,0,0,1,23.91-10.89c2.42-.9,4.86-1.75,7.27-2.67,1.89-.72,10.8-3.2,11.37-5.18,1.05-3.65-4.48-2.59-6.49-2m-53.58.58c-1.08-1.65-1.54-1.56-3.31-1.72-3-.29-7.47,1.69-10.12,2.94-4.63,2.17-9.11,4.48-13.67,6.8-1.42.72-4.57,2.13-4-.71.1-1.41.27-2.67.24-3.93-.06-3.72-1.51-5.1-5-4.91a20.1,20.1,0,0,0-8.3,2.59c-4,2.11-7.94,4.31-11.94,6.41-.8.42-1.62,1.23-2.77.48.06-.86,1.78-5.87,1.75-6.75a2.72,2.72,0,0,0-2.16-2.75c-1.31-.31-3-.45-3.59,1-1.28,2.88-4.77,9.64-5.23,12.84-.32,2.16.2,4.59,2,5.87a4.76,4.76,0,0,0,6.12-.21c.76-.63,1.56-1.22,2.36-1.77a100.54,100.54,0,0,1,17.68-9.2c-.12,2.07-.22,3.33-.26,4.6-.11,3.21,1,4.73,3.82,5.68,2.67.9,5-.1,7.31-1.24,8.22-4,16.35-8.29,25.3-10.35a8.5,8.5,0,0,0,3.3-1.53c.65-1.56,1.84-2.19.55-4.14m-62,.87a6.37,6.37,0,0,0-5.75-1.32c-9.07,2.27-18.06,4.75-26.91,7.75a23.93,23.93,0,0,1-5.84,1.73,5.36,5.36,0,0,1,0-1.3c.26-.81.57-1.61.89-2.39,1.22-3,.63-4.77-2.09-6.32-1.86-1.07-2.67-.9-3.22,1.16a60.3,60.3,0,0,1-3.92,9.38,14.48,14.48,0,0,0-1.11,3.45,3.56,3.56,0,0,0,2.1,4.14c2.39,1.33,4.45,1,6.87.09a212.26,212.26,0,0,1,37.59-11.18c1.32-.25,2.34-.58,2.67-2a3.06,3.06,0,0,0-1.29-3.19m-29.45-24.66a3.94,3.94,0,0,1,.68-.25c.87-.18,1.73-.22,2.23.69s-.07,1.69-.82,2.11c-2.54,1.39-5.11,2.77-7.74,4a25.2,25.2,0,0,1-3.8,1.11,20.08,20.08,0,0,1,9.45-7.65m-10.81,14.89a15,15,0,0,0,1.82-.26c7.67-2,13.58-6.86,19-12.27,2-2,1.2-3.63-1.68-4.26-1-.22-2,.08-2.93-.87-3.69-3.68-6.73-4.24-11-1.6a40,40,0,0,0-10.31,9.11,5.61,5.61,0,0,0-.58,6.73C1738.42,351.37,1740.45,352.13,1742.81,352.48Zm.94,8.33a2.23,2.23,0,0,0-2.22-1.82,11.29,11.29,0,0,0-3,.38c-3,.77-6,1.65-9,2.45a33.45,33.45,0,0,1-10.66,1.55c-2.1-.12-2.49-.54-2.44-2.68,0-1.12.26-2.25.39-3.37a3.52,3.52,0,0,0-.6-2.91c-1.89-2.32-4.52-2.48-6.58-.23-3,3.24-5.9,6.53-8.94,9.92-1-3.17-1.77-4.33-3.21-4.88s-2.27-.14-2.47,1.29c-.55,4-1.59,7.89-2.37,11.83a6.34,6.34,0,0,0,.48,4.52c1.53,2.66,4.53,2.82,6.27.32.48-.68.8-1.45,1.21-2.16a58.88,58.88,0,0,1,8.75-11.51,5.25,5.25,0,0,1,.9.71c3.07,4,7.21,5.15,12.06,4.83a44.55,44.55,0,0,0,7.84-1.64c4.19-1,8.4-2.08,12.27-4.15,1.07-.58,1.61-1.28,1.33-2.45m-85.82-3.38a54.69,54.69,0,0,1-17.61,11.63c4.79-6.59,12.47-11.7,17.61-11.63m45.61,3.6a3.37,3.37,0,0,0-2.38-1.53c-2.05-.16-4.09-.57-6.15,0-8.34,2.21-16.46,5.07-24.59,7.9-7.67,2.68-15.25,5.64-23,7.94a16.86,16.86,0,0,1-9.63.28,18.46,18.46,0,0,0,7.23-2.36c4.77-2.64,9.47-5.41,14.14-8.24a23.71,23.71,0,0,0,3.69-3c3.13-2.92,3-5.94-.15-8.68-3.53-3-8.21-3.37-12.55-.82a64,64,0,0,0-6.42,4.16c-4.84,3.68-9.44,7.61-12.29,13.2-2.27,4.45-1.14,8.4,3.32,10.7a19.46,19.46,0,0,0,12.06,1.72,56,56,0,0,0,11.94-3.22c13.78-5.44,28-9.72,42-14.26a10.82,10.82,0,0,0,2.3-1,1.68,1.68,0,0,0,.47-2.77m-63.83-1.1c-1-1.54-3.71.14-6.22.78a160,160,0,0,0-26.15,9.05c-1,.46-4.57,2.39-5,.27a2.73,2.73,0,0,1,.12-1.2c.35-1.41.71-2.82,1.07-4.23a10.68,10.68,0,0,0,.54-3.54,4.27,4.27,0,0,0-3.84-3.64,11.64,11.64,0,0,0-5.51,1.5,77.22,77.22,0,0,0-10.51,5.89c-1.12.69-4.37,3.08-3.54,1.49,2.43-4,4.41-7.91,6.89-11.3,2.91-4,5.31-8.39,8.35-12.28,2.76-3.53,4.62-8,7.42-11.54a6.81,6.81,0,0,0,1.48-4.16c0-1.52.14-3.29-1.29-4.12s-2.47.44-3.3,1.66c-.59.86-1.19,1.73-1.74,2.63-2.5,4-4.88,8.18-7.52,12.09-5.26,7.82-10.7,15.48-16,23.27a119.54,119.54,0,0,0-8.79,15.58,4.49,4.49,0,0,0,.52,5c1.16,1.61,2.47,1.65,4,1.42a3.46,3.46,0,0,0,1-.31,8.28,8.28,0,0,0,2.29-2.13c.77-.83,1.57-1.63,2.4-2.41a57.16,57.16,0,0,1,5.15-4.32,99.77,99.77,0,0,1,11.34-7.17c.58-.32,2.23-1.49,2.9-.81l.08.09a1.32,1.32,0,0,1,.19.64c.36,3.36-1.52,7.69,2.19,9.77a6.24,6.24,0,0,0,5.9.17,100.2,100.2,0,0,1,23.63-9.56c3.42-.93,6.91-1.37,10.34-2.12C1641.33,365.68,1641.79,363,1639.71,359.93Zm-28.38-13a12.25,12.25,0,0,0-8.42-3.14c-7.36-.26-14.67.43-22,1-5.55.42-11.09.91-17.41,1.44,1-1.2,1.5-1.79,2-2.32q4.86-4.89,9.76-9.76a15.59,15.59,0,0,0,3-3.91,4.26,4.26,0,0,0-1.12-5c-1.25-.86-2-.58-3.7,1.53a55.45,55.45,0,0,1-5.3,6.27c-4.38,4.14-8.73,8.31-13,12.59a7.87,7.87,0,0,1-5.18,2.52c-6.13.41-12.18,1.44-18.28,2.1-10.89,1.17-21.63,3.58-32.59,4.16-1.06.06-2,.44-2.18,1.62a2.52,2.52,0,0,0,1.12,2.86,7.34,7.34,0,0,0,5,1.19c4.44-.65,8.9-1.24,13.35-1.85,9-1.21,18-2.44,27-3.62.77-.1,1.71-.5,2.41.37a8.45,8.45,0,0,1-2.4,2.73,66.16,66.16,0,0,0-7.66,8.56,15.12,15.12,0,0,0-3.32,7.06,7,7,0,0,0,4.57,7.53,10.18,10.18,0,0,0,5.83.36,49.89,49.89,0,0,0,5.67-1.67c9.77-3.69,18.85-8.84,28.22-13.37.3-.15.57-.34.85-.5,1.42-.77,1.63-1.91,1.13-3.35-.8-2.31-2.33-3-4.51-1.85-8.9,4.51-17.77,9.07-27,12.92a28.67,28.67,0,0,1-6.28,1.85c-.65.11-1.41.25-1.81-.39a1.78,1.78,0,0,1,.28-1.86,36.71,36.71,0,0,1,3.52-5.16c3.17-3.77,6.81-7.13,10-10.83a12.87,12.87,0,0,1,9-4.54c13.19-1.38,26.35-2.84,39.63-2.7,2.63,0,5.27-.08,7.78,1,.94.39,2.15.59,2.62-.5A2.71,2.71,0,0,0,1611.33,347Zm-114.86,11c-.13,1.25-1.39,2.11-2.34,2.76-2.34,1.62-5.1,2.44-7.65,3.63a71.73,71.73,0,0,1-14.53,5.13,1,1,0,0,1-1.22-.27c.94-1.83,2.69-2.57,4.06-3.72a52.07,52.07,0,0,1,19.56-10.31c1.47-.44,2.24,1.48,2.12,2.78m47.94,4.24a2,2,0,0,0-2-1.83c-6.64-.26-13.25,2.71-19.43,4.84-6.53,2.26-13,4.69-19.47,7.13-.76.28-1.71.73-2.36-.11-.51-.65,0-1.4.35-2a35.8,35.8,0,0,1,6.83-9.37,33.07,33.07,0,0,0,3.53-3.67c1.28-1.63.82-3.27-1.16-5-1.68-1.46-2.87-1.47-4.41.17a15.83,15.83,0,0,1-3,3.07c-2.22,1.34-2.37,1.32-3.55-1.21-1.93-4.11-5.51-5.48-9.6-3.66-.77.35-1.52.78-2.27,1.15-8,4-15.16,9.18-22.76,13.73a14.43,14.43,0,0,0-3.14,3c-1.36,1.5-1.21,3-.2,4.67,2.16,3.45,4.58,4.53,8.67,3.53A67.4,67.4,0,0,0,1483,372l11.41-5.32a3.28,3.28,0,0,1-.58,2.49c-1.35,3.16-1.28,5.93,1.25,8.71s5,3.37,8.42,2.08c6-2.27,11.92-4.81,17.83-7.35a164.34,164.34,0,0,1,18.7-7.14,7.7,7.7,0,0,0,3-1.27C1543.68,363.66,1544.59,363.31,1544.41,362.25Zm-70-62c-4.71-3.58-10.7-4.61-16.47-5-20.47-1.26-40.82,4.69-59.68,13.32-22.39,10.24-47.81,26.81-62.15,47.9-10.06,14.78-2.76,35.33,14.87,36.3,15.13.83,32.9-7.7,47.06-12.71a483.87,483.87,0,0,0,48.72-20.31l0,.12q-6.29,14-12.55,27.92c-.84,1.87-1.71,3.89-1.38,5.93s2.44,3.86,4.18,2.95a5.06,5.06,0,0,0,1.87-2.43q9-18.72,18.05-37.44c1.72-3.57,2.47-9.51-1.22-10.19a5.76,5.76,0,0,0-3.63,1A384.9,384.9,0,0,1,1358.41,383c-9.27,2.16-16.36-1.77-18.1-11.56-1-5.4,1.69-11.54,5.13-15.63A144.63,144.63,0,0,1,1377,328a153.58,153.58,0,0,1,54.56-22.55,119.51,119.51,0,0,1,28.3-2.23c4,.18,8.12.23,11,3.75a7.79,7.79,0,0,1-.05,10.37c-4.28,4.73-10.17,7.69-15.71,10.3a99.19,99.19,0,0,1-24,7.73c-3.29.61-7.7,3-6.35,6.24,1,2.37,4.13,2.24,6.49,1.65a130.77,130.77,0,0,0,40-17.47c3.6-2.35,7.32-5.16,8.81-9.39,2-5.8-1-12.57-5.69-16.16m-266.18,96.64c7-8.27,15.9-13.77,25.93-17.58-6.67,8.77-15.05,15-25.93,17.58m20.28-38.78c1.24-.92,2.11-1.7,1.26-3.19a2.81,2.81,0,0,0-3.71-1.42,10.65,10.65,0,0,0-2.57,1.34c-2.82,2.1-5.62,4.24-8.35,6.46-1.58,1.28-2.66,2.9-2,5.09a5.77,5.77,0,0,0,5,4.18,14.86,14.86,0,0,0,5.41-.54c5.32-1.24,10.53-2.88,15.72-4.57,1.45-.46,2.87-1.15,4.58-.73a5.25,5.25,0,0,1-3.56,4.36c-3.06,1.17-6,2.62-9,4-6.73,3.18-33,15.76-26.5,26.6,4.67,7.76,19-1.49,23.46-5.05a72.47,72.47,0,0,0,16.79-18.52,8.74,8.74,0,0,1,5.64-4.17,115,115,0,0,1,27.68-3.73c1.93,0,3.86-.25,5.79-.43a2,2,0,0,0,1.94-1.83,2,2,0,0,0-1.22-2.06,8.36,8.36,0,0,0-3.12-.9c-8.29-1.21-16.46-.27-24.61,1.19l-5.17.94a2.57,2.57,0,0,1,.64-2c.36-.63.82-1.21,1.17-1.85,1.11-2,.89-3.26-.79-4.81-1.53-1.4-3.12-1.4-5-.67-5,1.92-10,3.71-15.07,5.44a63,63,0,0,1-11.06,2.71c1.56-3.32,4.41-4.22,6.59-5.86m-13.65-26.5a9.38,9.38,0,0,0,3-4.11c.45-1.66-.41-3.79-2.11-4-1.4-.2-2.61.87-3.6,1.88a334.82,334.82,0,0,0-24.5,27.66c-2.83,3.58-21.31,23.72-12.38,25.5a11.34,11.34,0,0,0,5.55-.76c10.63-3.3,21.2-6.84,32.07-9.31,1.74-.39,3.68-1,4.74-2.58a2,2,0,0,0-1.11-2.72,5.69,5.69,0,0,0-3.3-.07,309.8,309.8,0,0,0-31.69,7.53s0,0,0,0a243.61,243.61,0,0,1,33.3-38.95m-33.34,30.65a6.37,6.37,0,0,0-5.75-1.32c-9.06,2.27-18.06,4.75-26.91,7.75a24,24,0,0,1-5.83,1.73,5.36,5.36,0,0,1,0-1.3c.25-.81.56-1.61.88-2.39,1.22-3,.63-4.77-2.08-6.32-1.87-1.07-2.68-.9-3.23,1.16a59.3,59.3,0,0,1-3.91,9.38,14.48,14.48,0,0,0-1.11,3.45,3.56,3.56,0,0,0,2.09,4.14c2.4,1.33,4.46,1,6.87.09a212.37,212.37,0,0,1,37.6-11.18c1.31-.25,2.33-.58,2.66-2a3,3,0,0,0-1.29-3.19m-29.45-24.66a4.67,4.67,0,0,1,.68-.25c.87-.18,1.73-.22,2.24.69s-.08,1.69-.83,2.11c-2.54,1.39-5.11,2.77-7.73,4a25.33,25.33,0,0,1-3.81,1.11,20.18,20.18,0,0,1,9.45-7.65m-10.8,14.89a15.33,15.33,0,0,0,1.82-.26c7.66-2,13.58-6.86,19-12.27,2-2,1.21-3.63-1.67-4.26-1-.22-2,.08-2.94-.87-3.68-3.68-6.73-4.24-11-1.6a40.18,40.18,0,0,0-10.32,9.11,5.61,5.61,0,0,0-.57,6.73C1136.87,351.37,1138.91,352.13,1141.27,352.48Zm-4.71,7.17c-1.14-.22-2.54.69-3.55,1.12-1.67.72-3.37,1.36-5.07,2-3.42,1.24-6.87,2.36-10.29,3.59-1.36.49-16.34,5.22-16.39,4.83-.27-1.81,1-4.61,1.33-5.87,1.07-3.84-1.34-6.56-5.31-5.89a9,9,0,0,0-2.39.86,133,133,0,0,0-14.5,7.56c-1.11.71-2.13,2-3.69,1.69A1.46,1.46,0,0,1,1077,368c1.25-2.11,1.84-4.49.4-6.5-1.59-2.21-4.11-1.52-6.38-.91a7.15,7.15,0,0,0-.7.2,127.78,127.78,0,0,0-12.74,6.19c-2.17,1.13-8.06,4.94-8.44,3.1-.36-.91,1-2.87,1.36-3.38,4.24-7.08,1.54-7.73-1-7.08a3.77,3.77,0,0,0-2.24,1.75c-1,1.52-4.4,6.87-5.29,8.45-2,3.54-2.15,6.65,1.83,7.42a9.12,9.12,0,0,0,6.83-.86c2-1.17,5.4-3,7.51-3.89,3-1.34,6.14-3.27,9.56-3.51.2,1.25-.57,1.8-1,2.48s-1.24,1.51-1.76,2.32c-1.51,2.34-1.14,3.94,1.12,5.59a5.07,5.07,0,0,0,4.49.81,18.64,18.64,0,0,0,5.26-2.44c4.39-2.81,8.75-5.7,13.41-8.07a7.61,7.61,0,0,1,4.17-1.21c-.57,1.66-1.13,3-1.48,4.4-1,4,1.23,6.45,5.3,6,12.53-1.4,28.31-7.86,39.53-13.45,1.43-.71,2.56-1.43,2.43-3.19s-1-2.26-2.65-2.57M1001,358c-.12,1.25-1.39,2.11-2.33,2.76-2.35,1.62-5.1,2.44-7.67,3.63a71,71,0,0,1-14.52,5.13,1,1,0,0,1-1.21-.27c.93-1.83,2.68-2.57,4-3.72a52.18,52.18,0,0,1,19.55-10.31c1.49-.44,2.25,1.48,2.13,2.78m47.94,4.24a2,2,0,0,0-2-1.83c-6.64-.26-13.25,2.71-19.43,4.84-6.54,2.26-13,4.69-19.47,7.13-.76.28-1.71.73-2.36-.11-.51-.65,0-1.4.36-2a35.32,35.32,0,0,1,6.82-9.37,32.19,32.19,0,0,0,3.53-3.67c1.28-1.63.82-3.27-1.16-5-1.68-1.46-2.87-1.47-4.41.17a15.83,15.83,0,0,1-3.05,3.07c-2.22,1.34-2.36,1.32-3.55-1.21-1.93-4.11-5.51-5.48-9.6-3.66-.78.35-1.51.78-2.27,1.15-8,4-15.16,9.18-22.76,13.73a14.43,14.43,0,0,0-3.14,3c-1.36,1.5-1.22,3-.2,4.67,2.15,3.45,4.58,4.53,8.67,3.53a67.4,67.4,0,0,0,12.59-4.7l11.41-5.32a3.28,3.28,0,0,1-.58,2.49c-1.35,3.16-1.28,5.93,1.25,8.71s5,3.37,8.41,2.08c6-2.27,11.93-4.81,17.84-7.35a164.34,164.34,0,0,1,18.7-7.14,7.7,7.7,0,0,0,3-1.27C1048.18,363.66,1049.1,363.31,1048.91,362.25Zm-172.69,2.84c-2.61,4-4,8.93-7.32,13.25-2.49-5.12-5.66-8.6-9.06-12.33,2.11-1.43,4.33-1.27,6.38-1.73a41.94,41.94,0,0,1,8.8-1.41c1.48,0,2,.93,1.2,2.22m124.19-75.72c-1.41-3.05-3.19-5.4-6.64-5.07-2.84.28-5.71.05-8.55.35-15.6,1.64-31.16,3.75-46.64,6.42-25.13,4.34-49.91,10.73-74.56,17.74-7.17,2-14.24,4.48-21.39,6.6-3.67,1.1-7.23,1.15-9.87-2.85a3.31,3.31,0,0,0-.9-.85c-.89-.6-1.85-1.38-2.87-.53a3,3,0,0,0-.53,3.31c1.24,3.84,2.84,7.25,6.44,9,4.39,2.17,8.62,1.27,12.9-.15,4.47-1.48,8.91-3.14,13.4-4.56,9.11-2.88,18.28-5.52,27.54-7.65,5.67-1.3,11.13-4,17.29-3.76a6,6,0,0,1-1.16,4.1c-7.11,13.21-14.27,26.38-21.35,39.61a4.73,4.73,0,0,1-3.78,2.6c-5.88,1.09-11.79,2-17.67,3-7.64,1.41-15.31,3.5-23.13,1.39a4.74,4.74,0,0,0-1.55-.1c-2.66.2-3.64,2.43-2.12,5a8.27,8.27,0,0,0,4.81,3.54c2.54.84,5.14.59,7.73.65,1.68,0,3.43-.27,4.94.78,5.84,4.06,10.21,9.22,9.91,17.86-.07,1.93-.4,3.88.06,5.81.82,3.47,3.36,4.94,6,3.44,1.13-.65,1.51-2,2.14-3.09,5.08-9,9-18.86,14.15-27.86,1.11-1.93,2.26-2.91,4.27-3.22a372.17,372.17,0,0,1,38.71-3.3c9.18-.42,18.39-.12,27.59-.29,4.66-.08,9.31-.42,14-.78a9.56,9.56,0,0,0,3.74-1.07c2.14-1.13,2.2-3.36.16-4.76a10.32,10.32,0,0,0-6-1.54c-7.25,0-14.51-.05-21.76-.11a370.52,370.52,0,0,0-47.31,2.52,33,33,0,0,1-4.66.18c-1.44,0-1.84-.92-1.08-2.36q2.1-4,4.27-8c3.36-6.19,6.91-12.25,10.27-18.44,4.32-8,6.46-16.27,14.59-19.82,6.36-2.78,13.43-2.58,20.08-3.65,7.81-1.26,15.63-2.48,23.46-3.52,9.88-1.31,19.77-2.54,29.75-2a7.23,7.23,0,0,0,4.19-.65C1000.86,292.42,1001.25,291.2,1000.41,289.37Zm-260,68.06a54.69,54.69,0,0,1-17.61,11.63c4.79-6.59,12.46-11.7,17.61-11.63M786,361a3.35,3.35,0,0,0-2.38-1.53c-2-.16-4.1-.57-6.16,0-8.33,2.21-16.45,5.07-24.58,7.9-7.68,2.68-15.25,5.64-23,7.94a16.86,16.86,0,0,1-9.63.28,18.46,18.46,0,0,0,7.23-2.36c4.77-2.64,9.47-5.41,14.14-8.24a23.63,23.63,0,0,0,3.68-3c3.14-2.92,3.06-5.94-.14-8.68-3.53-3-8.21-3.37-12.55-.82a61.78,61.78,0,0,0-6.42,4.16c-4.84,3.68-9.44,7.61-12.29,13.2-2.27,4.45-1.13,8.4,3.32,10.7a19.45,19.45,0,0,0,12.06,1.72,55.7,55.7,0,0,0,11.93-3.22c13.79-5.44,28-9.72,42.06-14.26a10.82,10.82,0,0,0,2.3-1A1.68,1.68,0,0,0,786,361m-121.41,7.18c2.46-1.87,4.1-5.1,8.46-5.3-2.82,2.59-5.69,3.86-8.46,5.3m60-6.86a2.49,2.49,0,0,0-3.39-1.25c-.68.26-1.38.48-2.06.75-9.12,3.66-18.34,7.08-27.68,10.17a10,10,0,0,1-5.3.71,15.31,15.31,0,0,1,2.45-5.59c3.45-5.71,7-11.38,10.49-17.05,2.94-4.74,5.66-9.62,9.38-13.85a18.83,18.83,0,0,0,2.75-4.28,4.43,4.43,0,0,0-2.2-5.52c-1.65-.74-2.49-.34-3.89,2.1a67.46,67.46,0,0,1-7.71,10.59c-2.78,3.2-5.83,6.19-8.5,9.49a121.89,121.89,0,0,1-11.16,11.45c-.94.9-1.85,1.43-3.19.51-2.39-1.63-4.87-1.07-7.26.14a41.48,41.48,0,0,0-8.81,6.41c-1.61,1.45-3.51,2.52-4.62,4.58-1.8,3.31-1.36,5.34,1.9,7.21a5.33,5.33,0,0,0,5.54,0A98.07,98.07,0,0,0,680,365.31c.56-.5,1-1.31,2.37-1.08a14,14,0,0,0-2.55,5.14c-1.3,5.32,2.43,9.87,7.87,9.48a24,24,0,0,0,4.65-.87c9.6-2.66,18.77-6.53,28-10.29a11.93,11.93,0,0,0,3.89-2.66,2.87,2.87,0,0,0,.39-3.68m-60.83.9a6.38,6.38,0,0,0-5.75-1.32c-9.06,2.27-18.06,4.75-26.91,7.75a23.93,23.93,0,0,1-5.84,1.73,4.79,4.79,0,0,1,0-1.3,25.26,25.26,0,0,1,.87-2.39c1.23-3,.64-4.77-2.08-6.32-1.86-1.07-2.67-.9-3.23,1.16a60.21,60.21,0,0,1-3.9,9.38,14.5,14.5,0,0,0-1.12,3.45,3.56,3.56,0,0,0,2.1,4.14c2.4,1.33,4.45,1,6.87.09a212.26,212.26,0,0,1,37.59-11.18c1.32-.25,2.34-.58,2.67-2a3,3,0,0,0-1.29-3.19m-29.45-24.66a4.55,4.55,0,0,1,.67-.25c.87-.18,1.73-.22,2.25.69s-.08,1.69-.83,2.11c-2.55,1.39-5.11,2.77-7.73,4a25.67,25.67,0,0,1-3.81,1.11,20.08,20.08,0,0,1,9.45-7.65m-10.8,14.89a14.88,14.88,0,0,0,1.81-.26c7.66-2,13.58-6.86,19-12.27,2-2,1.21-3.63-1.67-4.26-1-.22-2,.08-2.94-.87-3.69-3.68-6.74-4.24-11-1.6a40,40,0,0,0-10.31,9.11,5.61,5.61,0,0,0-.58,6.73C619.15,351.37,621.18,352.13,623.55,352.48Zm-1.91,5.8a29.15,29.15,0,0,0-9.77-.35,132.63,132.63,0,0,0-18.93,3.56c-2.92.77-5.83,1.61-7.7-2.24a2.31,2.31,0,0,0-4-.65c-3.45,3.43-7.62,6-11.31,9.11a5.39,5.39,0,0,1-3.44,1.71c.14-1.5,1-2.47,1.34-3.61a5.1,5.1,0,0,0-1.67-4.85c-1.46-1.06-2.71-.51-4,.45-1.64,1.26-3.29,2.5-5,3.67-4.19,2.87-8.4,5.69-13.16,8.91a6,6,0,0,1,1.81-4,47.15,47.15,0,0,1,6.41-6.91,1.73,1.73,0,0,0,.47-2.47c-1.36-2.77-3-3.22-5.45-1.22a25.53,25.53,0,0,0-3.63,3.57c-2.5,3.1-5.51,5.86-7,9.67a6.06,6.06,0,0,0,1,6.48c1.65,1.88,5.09,2.31,7.33,1.34a32.31,32.31,0,0,0,5.33-3.12c2.31-1.57,4.67-3.05,7-4.64,1.48-1,2.14-1.1,3.19.84,2,3.76,5.47,5.13,9.32,2.32,3.24-2.35,5.53-5.58,8.62-8,1.4-1.1,2.48-1.49,3.77-.2,2.5,2.5,5.39,2.29,8.45,1.39a113.62,113.62,0,0,1,30.4-5c2,0,3.16-1,3.36-2.59s-.58-2.59-2.82-3.1m-128.89,9.93c2.45-1.87,4.09-5.1,8.45-5.3-2.81,2.59-5.68,3.86-8.45,5.3m60-6.86a2.49,2.49,0,0,0-3.39-1.25c-.68.26-1.37.48-2.05.75-9.13,3.66-18.34,7.08-27.68,10.17a10,10,0,0,1-5.3.71,15,15,0,0,1,2.45-5.59c3.44-5.71,7-11.38,10.49-17.05,2.94-4.74,5.66-9.62,9.37-13.85a18.53,18.53,0,0,0,2.76-4.28,4.43,4.43,0,0,0-2.2-5.52c-1.65-.74-2.49-.34-3.89,2.1a67.46,67.46,0,0,1-7.71,10.59c-2.79,3.2-5.83,6.19-8.5,9.49a123.15,123.15,0,0,1-11.16,11.45c-.94.9-1.85,1.43-3.19.51-2.4-1.63-4.88-1.07-7.27.14a42,42,0,0,0-8.81,6.41c-1.6,1.45-3.51,2.52-4.61,4.58-1.8,3.31-1.36,5.34,1.9,7.21a5.31,5.31,0,0,0,5.53,0,98.14,98.14,0,0,0,18.67-12.59c.56-.5,1-1.31,2.36-1.08a14.17,14.17,0,0,0-2.54,5.14c-1.3,5.32,2.42,9.87,7.87,9.48a23.72,23.72,0,0,0,4.64-.87c9.61-2.66,18.78-6.53,28-10.29a12,12,0,0,0,3.88-2.66,2.87,2.87,0,0,0,.39-3.68M491.35,331.6c1.25-1.19,2.57-2.44,3-4.11s-.42-3.79-2.12-4c-1.39-.2-2.61.87-3.6,1.88A336.55,336.55,0,0,0,464.15,353c-2.83,3.58-21.32,23.72-12.38,25.5a11.3,11.3,0,0,0,5.54-.76c10.63-3.3,21.21-6.84,32.08-9.31,1.74-.39,3.68-1,4.73-2.58a2,2,0,0,0-1.1-2.72,5.7,5.7,0,0,0-3.3-.07A309.8,309.8,0,0,0,458,370.59l0,0a244.06,244.06,0,0,1,33.29-38.95M460,360.81a2.23,2.23,0,0,0-2.21-1.82,11.31,11.31,0,0,0-3.06.38c-3,.77-6,1.65-9,2.45a33.59,33.59,0,0,1-10.67,1.55c-2.09-.12-2.49-.54-2.44-2.68,0-1.12.26-2.25.39-3.37a3.52,3.52,0,0,0-.6-2.91c-1.89-2.32-4.52-2.48-6.58-.23-3,3.24-5.9,6.53-8.94,9.92-1-3.17-1.77-4.33-3.21-4.88s-2.27-.14-2.47,1.29c-.54,4-1.59,7.89-2.37,11.83a6.44,6.44,0,0,0,.48,4.52c1.52,2.66,4.53,2.82,6.28.32.46-.68.79-1.45,1.2-2.16a59.28,59.28,0,0,1,8.75-11.51,5.25,5.25,0,0,1,.9.71c3.07,4,7.21,5.15,12.06,4.83a44.85,44.85,0,0,0,7.85-1.64c4.18-1,8.4-2.08,12.26-4.15,1.08-.58,1.62-1.28,1.33-2.45m-93.23,10.56c2.88-5.55,3.73-6.22,7.26-5.67-2,2.5-4.61,4-7.26,5.67M413.9,358.7a19.68,19.68,0,0,0-8.3.41c-6.13,1.67-12.42,2.19-18.69,2.93a4.57,4.57,0,0,1-4.77-1.88c-1.46-2.1-3.5-2.43-5.8-1.43-1,.44-1.94,1.16-3.09.89-2.34-.56-4,.6-5.46,2.14a160.18,160.18,0,0,0-11.33,12.82,12.44,12.44,0,0,0-1,1.52,3.71,3.71,0,0,0,.27,4.42,3.52,3.52,0,0,0,4.21,1.25,11.34,11.34,0,0,0,4.16-2.2c4-3.4,8.55-6,12.79-9a12.88,12.88,0,0,1,7.81-2.27c10-.08,19.72-2.28,29.28-5.12,1.37-.4,2.85-.84,3.26-2.59a4.58,4.58,0,0,0-3.34-1.88m18-72.27c-1.94-2.6-3.68-3.19-6.76-1.87a211.34,211.34,0,0,0-27.51,14.58c-7.08,4.36-14,9.06-20.93,13.64-7.7,5.07-15,10.84-22.33,16.49-10.16,7.8-19.83,16.33-29.64,24.62-9.25,7.81-18.24,16-27.37,24a31.07,31.07,0,0,1-8.43,5.52c-3.56,1.46-5.35.23-5.65-4a18.45,18.45,0,0,1,1.55-8.15c3.31-8.44,9.08-14.83,14.73-21.26,5.49-6.24,11.31-12.12,17.05-18.09,2.29-2.39,4.76-4.56,6.64-7.4,2.1-3.19,1.37-6.25-1.89-7.72-1.47-.67-2.92-.19-4.26.36-3.3,1.34-6.52,2.89-9.77,4.35-7.53,3.4-14.79,7.39-22,11.53a375.81,375.81,0,0,0-49.74,34c-6.44,5.23-13.2,10-19.9,14.81a42.41,42.41,0,0,1-9.63,5.61c-2.26.85-3.35-.18-2.84-2.75a19.14,19.14,0,0,1,2.72-6.51c3.44-5.35,7.34-10.28,11.14-15.31,6.37-8.42,12.47-17.09,19.16-25.17,5.71-6.9,12.06-13.16,18.21-19.61,4.48-4.71,9.08-9.27,13.62-13.91.82-.83,1.68-1.82.9-3.1a2.71,2.71,0,0,0-3.28-1.08c-1.1.29-4.16-.21-5,.5-13.57,11.45-25.09,25.08-36.45,39.08-9.05,11.14-19.73,23.49-26.88,36.24-1.9,3.37-1.66,8.46-1,12.55a8,8,0,0,0,10.89,6.33,46.75,46.75,0,0,0,5.92-3.06c3.8-2.15,7-5.21,10.6-7.78,6.9-5,13.83-10,20.52-15.29a355.19,355.19,0,0,1,32.22-22.64c7.17-4.51,14.64-8.38,22-12.5a41.82,41.82,0,0,1,10.81-4.73,9.2,9.2,0,0,1-2.83,4c-7,6.83-13.43,14.31-19.79,21.85a46.36,46.36,0,0,0-10.17,21c-1.81,9,4.52,16.57,12.8,15.48a16.31,16.31,0,0,0,6.85-2.54,87.8,87.8,0,0,0,10.91-8.7c14.66-13.22,29.54-26.14,44.74-38.59,11.71-9.59,23.83-18.49,36.29-26.83a206.56,206.56,0,0,1,19.4-11.89c7.54-3.94,14.85-8.56,23.11-10.71C433,291.14,433.46,288.6,431.85,286.43ZM94.52,353.68c-.92,2-2.11,2.85-4.24,2.78-3.88-.12-7.88-.38-11.75-.52-7.08-.25-14-.51-21.09-.59-7.61-.1-15.2.17-22.8.14,4.13-3,8.17-6.13,12.39-9,4.69-3.14,9.34-6.34,13.79-9.83a216,216,0,0,1,19.73-13.86c5.43-3.35,10.54-7.27,15.87-10.79,7.68-5.06,15.52-10.28,24.6-12a1.3,1.3,0,0,1,1.52,1.72c-1.06,4.49-4.34,8.48-6.66,12.34-2.57,4.27-5.11,8.57-7.57,12.91C103.37,335.74,98.7,344.58,94.52,353.68ZM90.11,364c-.82,2-2.26,5.84-3.13,7.81-2.22,4.95-3.75,8.75-6.22,13.75-.66,1.34-2.22,1.45-3.65,1s-3-.94-4.51-1.5c-13.72-5.25-26.5-11.6-36.74-22.9,2.14-.27,20.1-.41,23.14-.43,9.82-.07,19.65-.12,29.47.41,1.15.06,2.06.83,1.64,1.87m60.31-7.74a4.71,4.71,0,0,0-3.17-.59c-9.08.43-18.18.81-27.25,1.38-4.74.29-9.46-.07-14.18-.21-3.35-.09-3.62-.79-2.24-3.9,7.41-16.61,17.84-31.42,25.67-47.83,1.65-3.47,2.14-6.76.06-10.14-1.37-2.22-3.65-1.9-5.64-1.45-14,3.12-25.3,11-37,19.12-6.32,4.41-12.86,8.59-19.18,13-5,3.47-12,8.52-18.22,12.8-9.12,6.37-18,12.23-27.15,18.6C19.79,358.68,0,371.43,0,373.36A2.83,2.83,0,0,0,1.76,376,4.55,4.55,0,0,0,6,375.67a82.93,82.93,0,0,0,13.38-8.48c2.71-2.15,5.44-4.28,8.25-6.27,1.84-1.31,1.76-1.47,2.47.78a14.19,14.19,0,0,0,2.22,3.84c11.64,14.72,31.62,26.61,49.47,30.38,5.41,1.14,7.94-6.51,9.4-10.94,2.25-6.83,5.1-13.42,7.27-20.28.66-2.08,2.06-2.55,3.95-2.45,3.77.2,7.23.18,10.85.11q9.63-.15,19.26-.16c5.21,0,10.43-.31,15.63.53,1.74.28,3-2.65,3.48-4.24.26-.79-.43-1.68-1.18-2.23"></path></svg>